<svg xmlns="http://www.w3.org/2000/svg" version="1.1" xmlns:xlink="http://www.w3.org/1999/xlink" xmlns:svgjs="http://svgjs.dev/svgjs" width="2000" height="2000" viewBox="0 0 2000 2000"><g transform="matrix(1,0,0,1,0,0)"><svg viewBox="0 0 280 280" data-background-color="#ffffff" preserveAspectRatio="xMidYMid meet" height="2000" width="2000" xmlns="http://www.w3.org/2000/svg" xmlns:xlink="http://www.w3.org/1999/xlink"><g id="tight-bounds" transform="matrix(1,0,0,1,0,0)"><svg viewBox="0 0 280 280" height="280" width="280"><g><svg viewBox="0 0 280 280" height="280" width="280"><g><svg viewBox="0 0 280 280" height="280" width="280"><g id="textblocktransform"><svg viewBox="0 0 280 280" height="280" width="280" id="textblock"><g><svg viewBox="0 0 280 280" height="280" width="280"><g transform="matrix(1,0,0,1,90.50252531694167,93.78123803994745)"><svg viewBox="0 0 98.99494936611666 92.4375239201051" height="92.4375239201051" width="98.99494936611666"><g id="icon-0"><svg xmlns="http://www.w3.org/2000/svg" xmlns:xlink="http://www.w3.org/1999/xlink" version="1.1" x="0" y="0" viewBox="0 5.312 100 93.376" enable-background="new 0 0 100 100" xml:space="preserve" height="92.4375239201051" width="98.99494936611666" class="icon-xg-0" data-fill-palette-color="accent" id="xg-0"><polygon points="91.822,10.995 91.822,5.312 52.71,29.765 " fill="#ffffff" data-fill-palette-color="accent"></polygon><polygon points="52.71,31.876 52.71,98.688 100,76.418 100,9.605 " fill="#ffffff" data-fill-palette-color="accent"></polygon><polygon points="8.178,10.995 8.178,5.312 47.29,29.765 " fill="#ffffff" data-fill-palette-color="accent"></polygon><polygon points="47.29,31.876 47.29,98.688 0,76.418 0,9.605 " fill="#ffffff" data-fill-palette-color="accent"></polygon></svg></g></svg></g><g id="text-0"><path d="M26.973 109.054l-0.901 2.445-22.464-11.31 0.949-2.578 22.565 1.218-18.009-13.587 0.961-2.606 24.457 5.898-0.904 2.455-21.414-5.219 0.207-0.386 18.309 13.471-0.855 2.322-22.695-1.449 0.108-0.498z" fill="#ffffff" data-fill-palette-color="primary"></path><path d="M19.747 71.607l-0.924 1.659c-0.177 0.318-0.424 0.388-0.742 0.211v0l-2.312-1.288c-0.318-0.177-0.388-0.424-0.211-0.742v0l0.924-1.659c0.088-0.159 0.196-0.249 0.324-0.27 0.124-0.016 0.257 0.016 0.398 0.095v0l2.312 1.287c0.318 0.177 0.395 0.412 0.231 0.707zM38.582 81.671l-1.307 2.347-15.839-8.822 1.307-2.348z" fill="#ffffff" data-fill-palette-color="primary"></path><path d="M43.644 74.365l-1.591 2.165-14.609-10.738 1.25-1.701 1.953 0.72c0.017-1.057 0.182-2.186 0.494-3.384 0.312-1.208 0.836-2.314 1.574-3.318v0c0.79-1.074 1.654-1.772 2.592-2.094 0.938-0.322 1.895-0.362 2.872-0.121 0.971 0.237 1.895 0.679 2.774 1.325v0l9.929 7.298-1.585 2.157-9.685-7.119c-0.619-0.455-1.261-0.735-1.927-0.84-0.662-0.111-1.295-0.045-1.899 0.196-0.602 0.251-1.145 0.705-1.627 1.361v0c-0.443 0.602-0.796 1.208-1.06 1.817-0.265 0.599-0.463 1.21-0.594 1.832-0.131 0.622-0.241 1.294-0.328 2.015v0z" fill="#ffffff" data-fill-palette-color="primary"></path><path d="M59.342 56.658v0c-1.081 1.032-2.194 1.647-3.337 1.844-1.138 0.202-2.338-0.026-3.599-0.684-1.266-0.654-2.626-1.743-4.081-3.268v0c-1.548-1.622-2.64-3.093-3.276-4.413-0.631-1.315-0.807-2.548-0.528-3.699 0.284-1.146 1.033-2.298 2.246-3.455v0c0.736-0.702 1.533-1.305 2.392-1.808 0.864-0.508 1.66-0.923 2.387-1.245v0l-5.955-6.24 1.944-1.855 17.886 18.743-1.579 1.506-1.634-0.981c-0.039 0.447-0.193 1.017-0.462 1.711-0.264 0.689-0.604 1.381-1.02 2.076-0.416 0.695-0.878 1.284-1.384 1.768zM58.384 54.528v0c0.755-0.721 1.326-1.493 1.712-2.317 0.386-0.824 0.7-1.603 0.94-2.336v0l-8.179-8.571c-0.761 0.382-1.471 0.77-2.128 1.165-0.657 0.394-1.322 0.912-1.994 1.553v0c-0.833 0.795-1.364 1.599-1.592 2.413-0.224 0.809-0.092 1.708 0.394 2.696 0.486 0.988 1.371 2.154 2.654 3.498v0c1.158 1.213 2.206 2.088 3.147 2.624 0.94 0.546 1.816 0.752 2.629 0.619 0.813-0.133 1.619-0.581 2.417-1.344z" fill="#ffffff" data-fill-palette-color="primary"></path><path d="M73.198 45.129l-2.209 1.529-9.066-13.097-2.292 1.586-0.983-1.42 2.022-1.977-1.178-1.702c-0.736-1.063-1.221-2.042-1.455-2.936-0.238-0.9-0.178-1.748 0.179-2.545 0.358-0.796 1.085-1.574 2.182-2.333v0c0.653-0.452 1.23-0.802 1.73-1.05 0.502-0.257 0.951-0.478 1.347-0.662v0l1.081 1.561-2.492 1.725c-0.67 0.464-1.109 0.923-1.318 1.379-0.199 0.457-0.214 0.951-0.044 1.48 0.175 0.526 0.482 1.104 0.918 1.735v0l1.259 1.819 4.635-3.208 1.253 1.811-4.634 3.208z" fill="#ffffff" data-fill-palette-color="primary"></path><path d="M86.409 37.605v0c-1.549 0.8-2.947 1.015-4.192 0.642-1.255-0.375-2.318-1.406-3.19-3.093v0l-5.86-11.342 2.387-1.234 5.549 10.742c0.695 1.346 1.47 2.098 2.325 2.255 0.86 0.154 1.844-0.054 2.951-0.626v0c0.945-0.488 1.739-1.073 2.38-1.753 0.645-0.674 1.255-1.467 1.83-2.378v0l-6.528-12.634 2.378-1.229 8.322 16.108-1.867 0.964-1.429-1.512c-0.557 0.947-1.251 1.885-2.082 2.814-0.834 0.924-1.825 1.682-2.974 2.276z" fill="#ffffff" data-fill-palette-color="primary"></path><path d="M107.095 28.876l-2.186 0.757c-0.986 0.342-1.871 0.452-2.654 0.332-0.785-0.127-1.488-0.532-2.11-1.214-0.621-0.683-1.169-1.708-1.643-3.076v0l-6.582-18.992 2.538-0.879 6.474 18.676c0.355 1.024 0.718 1.764 1.09 2.22 0.38 0.46 0.787 0.729 1.22 0.807 0.431 0.072 0.904 0.057 1.418-0.043v0l1.803-0.411z" fill="#ffffff" data-fill-palette-color="primary"></path><path d="M130.575 24.867l-9.314 1.049-2.797-24.832 8.974-1.01c2.135-0.24 3.797 0.108 4.986 1.044 1.19 0.937 1.905 2.472 2.145 4.607v0c0.117 1.037 0.061 1.955-0.168 2.753-0.229 0.798-0.58 1.471-1.053 2.019-0.474 0.541-1.029 0.939-1.665 1.194v0c0.461 0.063 0.96 0.193 1.498 0.391 0.538 0.204 1.058 0.518 1.559 0.942 0.501 0.418 0.933 0.972 1.296 1.663 0.362 0.684 0.598 1.522 0.709 2.512v0c0.197 1.753 0.072 3.163-0.377 4.231-0.449 1.067-1.169 1.866-2.159 2.398-0.984 0.531-2.195 0.877-3.634 1.039zM122.643 13.909l1.048 9.304 6.544-0.737c0.897-0.101 1.664-0.33 2.301-0.686 0.631-0.356 1.09-0.909 1.378-1.66 0.296-0.745 0.37-1.77 0.223-3.074v0c-0.104-0.923-0.39-1.691-0.859-2.302-0.468-0.605-1.059-1.043-1.774-1.315-0.715-0.272-1.487-0.361-2.317-0.267v0zM121.438 3.209l0.965 8.572 6.444-0.726c1.057-0.119 1.884-0.602 2.48-1.448 0.603-0.84 0.842-1.914 0.714-3.221v0c-0.133-1.605-0.6-2.684-1.401-3.237-0.808-0.559-1.785-0.775-2.929-0.646v0z" fill="#ffffff" data-fill-palette-color="primary"></path><path d="M149.363 25.09v0c-1.31-0.083-2.448-0.29-3.411-0.62-0.964-0.338-1.754-0.863-2.37-1.577-0.609-0.72-1.033-1.695-1.272-2.925-0.239-1.23-0.3-2.782-0.181-4.656v0c0.12-1.895 0.376-3.437 0.768-4.628 0.392-1.19 0.936-2.097 1.63-2.72 0.701-0.624 1.55-1.035 2.547-1.236 0.998-0.2 2.152-0.259 3.462-0.175v0c1.31 0.083 2.448 0.293 3.412 0.631 0.971 0.331 1.761 0.85 2.371 1.556 0.616 0.707 1.048 1.675 1.293 2.906 0.253 1.23 0.32 2.783 0.202 4.658v0c-0.12 1.895-0.383 3.437-0.789 4.626-0.399 1.189-0.942 2.096-1.63 2.72-0.687 0.624-1.537 1.043-2.548 1.256-1.012 0.206-2.173 0.267-3.484 0.185zM149.503 22.893v0c0.84 0.053 1.584 0.019 2.233-0.102 0.655-0.114 1.213-0.396 1.672-0.845 0.46-0.45 0.831-1.142 1.113-2.075 0.288-0.933 0.482-2.179 0.581-3.739v0c0.1-1.579 0.065-2.84-0.105-3.781-0.163-0.941-0.445-1.661-0.845-2.159-0.4-0.504-0.917-0.858-1.552-1.059-0.629-0.195-1.363-0.319-2.203-0.373v0c-0.86-0.054-1.611-0.024-2.253 0.091-0.642 0.121-1.193 0.407-1.653 0.856-0.46 0.443-0.83 1.121-1.11 2.035-0.287 0.913-0.481 2.159-0.581 3.739v0c-0.099 1.559-0.064 2.82 0.105 3.781 0.162 0.962 0.443 1.695 0.842 2.199 0.4 0.504 0.911 0.854 1.533 1.048 0.621 0.201 1.362 0.329 2.223 0.384z" fill="#ffffff" data-fill-palette-color="primary"></path><path d="M169.219 28.398v0c-1.277-0.305-2.363-0.702-3.257-1.193-0.892-0.497-1.581-1.149-2.066-1.957-0.477-0.813-0.729-1.846-0.756-3.098-0.026-1.252 0.178-2.792 0.614-4.62v0c0.441-1.847 0.956-3.323 1.545-4.429 0.589-1.105 1.279-1.907 2.069-2.403 0.797-0.495 1.704-0.756 2.721-0.784 1.017-0.027 2.164 0.112 3.442 0.417v0c1.277 0.305 2.362 0.706 3.254 1.202 0.9 0.492 1.591 1.138 2.071 1.938 0.487 0.802 0.747 1.829 0.78 3.083 0.04 1.256-0.159 2.797-0.595 4.625v0c-0.441 1.847-0.962 3.322-1.564 4.424-0.596 1.104-1.285 1.905-2.069 2.403-0.784 0.498-1.692 0.766-2.726 0.803-1.032 0.031-2.186-0.106-3.463-0.411zM169.73 26.256v0c0.819 0.195 1.558 0.289 2.217 0.28 0.665-0.001 1.262-0.183 1.793-0.548 0.53-0.365 1.014-0.983 1.45-1.855 0.443-0.87 0.846-2.065 1.209-3.585v0c0.367-1.539 0.548-2.787 0.54-3.744 0-0.955-0.155-1.712-0.465-2.271-0.308-0.565-0.758-1.001-1.349-1.309-0.586-0.299-1.289-0.546-2.108-0.742v0c-0.838-0.2-1.583-0.298-2.235-0.294-0.653 0.01-1.245 0.198-1.775 0.562-0.529 0.358-1.009 0.964-1.44 1.817-0.438 0.851-0.841 2.046-1.209 3.584v0c-0.363 1.52-0.543 2.768-0.541 3.745-0.004 0.975 0.148 1.745 0.456 2.31 0.308 0.565 0.752 0.996 1.332 1.294 0.578 0.304 1.286 0.556 2.125 0.756z" fill="#ffffff" data-fill-palette-color="primary"></path><path d="M184.216 33.065l-2.476-1.045 10.069-23.871 2.475 1.044-5.833 13.83 2.383 1.005 7.901-4.517 2.634 1.111-9.167 5.309 2.493 11.553-2.624-1.107-2.278-10.168-2.28-0.962z" fill="#ffffff" data-fill-palette-color="primary"></path><path d="M212.459 49.64v0c-0.398-0.3-0.861-0.67-1.389-1.111-0.533-0.445-1.072-0.905-1.615-1.382-0.544-0.486-1.054-0.951-1.529-1.394-0.47-0.439-0.851-0.823-1.142-1.153v0l1.246-1.653c0.427 0.373 0.952 0.823 1.574 1.352 0.622 0.528 1.301 1.082 2.036 1.662 0.74 0.584 1.471 1.147 2.192 1.691v0c0.817 0.616 1.612 1.089 2.383 1.418 0.772 0.329 1.516 0.422 2.232 0.279 0.711-0.138 1.375-0.616 1.992-1.433v0l1.021-1.355c0.693-0.919 0.987-1.795 0.88-2.626-0.112-0.835-0.692-1.648-1.741-2.439v0l-2.137-1.611c-1.645-1.241-2.659-2.575-3.041-4.002-0.387-1.422 0.089-3.02 1.427-4.794v0l0.857-1.137c1.415-1.876 2.928-2.831 4.539-2.865 1.611-0.033 3.338 0.645 5.182 2.036v0c0.581 0.438 1.209 0.958 1.885 1.561 0.677 0.612 1.324 1.214 1.941 1.805 0.617 0.592 1.116 1.103 1.498 1.536v0l-1.246 1.653c-0.743-0.67-1.597-1.411-2.562-2.223-0.959-0.808-1.883-1.546-2.77-2.216v0c-0.812-0.612-1.587-1.049-2.325-1.311-0.739-0.262-1.447-0.273-2.125-0.034-0.678 0.239-1.352 0.802-2.021 1.689v0l-0.693 0.92c-0.835 1.107-1.119 2.087-0.851 2.939 0.263 0.848 0.911 1.661 1.943 2.439v0l2.306 1.74c1.102 0.831 1.855 1.711 2.26 2.64 0.404 0.929 0.515 1.873 0.332 2.831-0.179 0.953-0.609 1.881-1.291 2.784v0l-1.168 1.549c-1.006 1.333-2.067 2.148-3.184 2.443-1.113 0.291-2.249 0.214-3.407-0.229-1.149-0.445-2.312-1.111-3.489-1.999z" fill="#ffffff" data-fill-palette-color="primary"></path><path d="M228.587 64.191l-1.734-1.779c-0.818-0.839-1.359-1.67-1.625-2.493-0.261-0.818-0.209-1.657 0.155-2.519 0.368-0.857 1.071-1.776 2.107-2.758v0l7.269-6.941-2.015-2.069 1.237-1.205 2.377 1.759 3.935-3.212 1.445 1.483-3.625 3.531 3.651 3.748-1.578 1.536-3.65-3.748-7.199 7.013c-0.569 0.554-0.966 1.059-1.191 1.513-0.215 0.454-0.314 0.87-0.295 1.246 0.019 0.376 0.103 0.713 0.251 1.011 0.148 0.297 0.314 0.559 0.497 0.785v0l1.398 1.725z" fill="#ffffff" data-fill-palette-color="primary"></path><path d="M235.775 73.953v0c-0.781-1.055-1.356-2.058-1.725-3.008-0.363-0.954-0.47-1.897-0.322-2.828 0.158-0.93 0.63-1.882 1.416-2.858 0.786-0.976 1.934-2.022 3.444-3.14v0c1.526-1.13 2.87-1.928 4.032-2.396 1.162-0.467 2.206-0.636 3.131-0.508 0.928 0.134 1.791 0.517 2.586 1.152 0.796 0.634 1.585 1.478 2.367 2.533v0c0.781 1.055 1.354 2.06 1.716 3.015 0.373 0.956 0.485 1.895 0.338 2.816-0.143 0.927-0.606 1.881-1.387 2.862-0.778 0.986-1.922 2.039-3.431 3.157v0c-1.526 1.13-2.874 1.923-4.045 2.379-1.166 0.461-2.21 0.631-3.13 0.508-0.92-0.123-1.788-0.503-2.603-1.14-0.809-0.641-1.605-1.489-2.387-2.544zM237.545 72.643v0c0.501 0.676 1.007 1.224 1.517 1.642 0.509 0.427 1.084 0.672 1.725 0.734 0.641 0.062 1.409-0.1 2.304-0.487 0.899-0.381 1.977-1.036 3.232-1.966v0c1.272-0.942 2.213-1.781 2.823-2.518 0.615-0.732 0.983-1.411 1.106-2.038 0.128-0.631 0.064-1.254-0.191-1.869-0.256-0.606-0.635-1.248-1.135-1.924v0c-0.513-0.693-1.02-1.247-1.521-1.664-0.507-0.413-1.08-0.65-1.721-0.712-0.635-0.066-1.392 0.088-2.272 0.463-0.883 0.369-1.96 1.024-3.232 1.966v0c-1.256 0.93-2.197 1.769-2.823 2.518-0.631 0.744-1.01 1.431-1.138 2.061-0.128 0.631-0.066 1.247 0.186 1.848 0.247 0.605 0.627 1.254 1.14 1.946z" fill="#ffffff" data-fill-palette-color="primary"></path><path d="M244.376 87.255l-1.256-2.375 16.027-8.477 0.953 1.804-2.492 2.05c1.244 0.264 2.382 0.694 3.414 1.291 1.029 0.591 1.85 1.467 2.463 2.627v0c0.148 0.28 0.279 0.549 0.394 0.809 0.114 0.259 0.197 0.517 0.248 0.771v0l-2.429 1.285c-0.094-0.278-0.206-0.577-0.336-0.896-0.128-0.313-0.272-0.622-0.433-0.925v0c-0.39-0.738-0.829-1.352-1.316-1.841-0.49-0.48-1.05-0.884-1.681-1.213-0.64-0.332-1.367-0.64-2.181-0.926v0z" fill="#ffffff" data-fill-palette-color="primary"></path><path d="M251.655 104.89v0c-0.641-1.788-0.88-3.293-0.718-4.517 0.162-1.224 0.803-2.291 1.922-3.2 1.115-0.9 2.782-1.748 5-2.543v0c2.257-0.809 4.101-1.212 5.532-1.211 1.431 0.002 2.591 0.434 3.48 1.296 0.888 0.862 1.649 2.177 2.283 3.946v0c0.541 1.509 0.81 2.8 0.809 3.873-0.004 1.067-0.332 1.979-0.984 2.734-0.66 0.752-1.713 1.387-3.158 1.905v0c-1.002 0.359-1.877 0.451-2.627 0.276-0.749-0.175-1.389-0.582-1.918-1.222-0.53-0.64-0.974-1.461-1.333-2.462v0l-2.236-6.237c-1.379 0.523-2.438 1.071-3.177 1.643-0.743 0.581-1.17 1.306-1.281 2.175-0.11 0.869 0.09 2.017 0.602 3.444v0l1.969 5.495-1.53 0.549c-0.477-0.931-0.927-1.849-1.353-2.755-0.419-0.909-0.846-1.971-1.282-3.189zM259.361 96.903v0l2.177 6.075c0.343 0.957 0.771 1.601 1.283 1.933 0.519 0.329 1.234 0.33 2.147 0.003v0c0.983-0.352 1.695-0.769 2.138-1.249 0.437-0.478 0.66-1.063 0.67-1.753 0.004-0.688-0.177-1.542-0.543-2.563v0c-0.429-1.198-0.943-2.073-1.541-2.623-0.594-0.56-1.387-0.816-2.378-0.768-0.994 0.041-2.311 0.356-3.953 0.945z" fill="#ffffff" data-fill-palette-color="primary"></path><path d="M9.959 183.77l-0.901-2.445 24.433-5.965 0.949 2.578-17.963 13.71 22.52-1.341 0.96 2.606-22.44 11.377-0.904-2.455 19.682-9.92 0.094 0.429-22.674 1.624-0.855-2.322 18.212-13.619 0.241 0.45z" fill="#ffffff" data-fill-palette-color="primary"></path><path d="M41.215 202.992l-0.924-1.659c-0.177-0.318-0.107-0.565 0.211-0.742v0l2.312-1.288c0.318-0.177 0.565-0.107 0.741 0.211v0l0.924 1.659c0.088 0.159 0.108 0.298 0.06 0.418-0.052 0.114-0.149 0.21-0.29 0.289v0l-2.312 1.288c-0.318 0.177-0.558 0.118-0.722-0.176zM22.742 213.708l-1.307-2.347 15.839-8.822 1.308 2.347z" fill="#ffffff" data-fill-palette-color="primary"></path><path d="M29.034 222.93l-1.591-2.165 14.609-10.738 1.25 1.701-1.27 1.649c1.004 0.332 2.032 0.826 3.082 1.482 1.06 0.658 1.959 1.489 2.697 2.493v0c0.79 1.074 1.198 2.107 1.225 3.098 0.027 0.992-0.22 1.917-0.742 2.777-0.516 0.856-1.213 1.606-2.092 2.252v0l-9.929 7.299-1.585-2.157 9.684-7.119c0.619-0.455 1.077-0.984 1.377-1.589 0.303-0.599 0.43-1.223 0.38-1.871-0.06-0.65-0.331-1.303-0.814-1.959v0c-0.443-0.602-0.915-1.12-1.417-1.553-0.493-0.432-1.016-0.803-1.571-1.114-0.555-0.311-1.163-0.616-1.825-0.915v0z" fill="#ffffff" data-fill-palette-color="primary"></path><path d="M46.545 243.308v0c-1.081-1.032-1.747-2.114-1.997-3.247-0.255-1.128-0.083-2.337 0.515-3.627 0.594-1.295 1.618-2.705 3.073-4.23v0c1.548-1.622 2.966-2.782 4.255-3.478 1.284-0.692 2.507-0.926 3.67-0.701 1.158 0.23 2.343 0.924 3.556 2.082v0c0.736 0.702 1.375 1.47 1.919 2.305 0.548 0.84 1 1.615 1.354 2.326v0l5.955-6.24 1.944 1.854-17.886 18.744-1.578-1.507 0.904-1.678c-0.448-0.018-1.025-0.145-1.731-0.381-0.701-0.231-1.408-0.539-2.122-0.922-0.714-0.383-1.324-0.817-1.831-1.3zM48.628 242.252v0c0.755 0.721 1.553 1.254 2.395 1.601 0.842 0.347 1.634 0.624 2.377 0.83v0l8.18-8.571c-0.417-0.743-0.838-1.433-1.263-2.071-0.425-0.638-0.973-1.277-1.646-1.919v0c-0.833-0.795-1.661-1.288-2.485-1.478-0.819-0.186-1.71-0.012-2.674 0.52-0.964 0.532-2.087 1.471-3.37 2.815v0c-1.158 1.213-1.982 2.302-2.474 3.266-0.501 0.964-0.666 1.849-0.495 2.655 0.171 0.806 0.656 1.59 1.455 2.352z" fill="#ffffff" data-fill-palette-color="primary"></path><path d="M62.879 256.336l-2.209-1.529 9.065-13.097-2.292-1.587 0.983-1.42 2.563 1.197 1.178-1.703c0.736-1.063 1.481-1.862 2.236-2.396 0.758-0.54 1.573-0.782 2.444-0.727 0.871 0.054 1.855 0.461 2.952 1.219v0c0.653 0.452 1.184 0.869 1.592 1.25 0.417 0.379 0.782 0.722 1.094 1.028v0l-1.081 1.561-2.491-1.725c-0.67-0.464-1.255-0.713-1.755-0.748-0.498-0.026-0.965 0.134-1.401 0.48-0.43 0.349-0.864 0.839-1.3 1.471v0l-1.259 1.819 4.634 3.208-1.253 1.81-4.634-3.208z" fill="#ffffff" data-fill-palette-color="primary"></path><path d="M77.902 265.419v0c-1.549-0.8-2.533-1.816-2.951-3.047-0.42-1.24-0.195-2.704 0.677-4.391v0l5.86-11.343 2.387 1.233-5.549 10.742c-0.695 1.346-0.86 2.413-0.494 3.2 0.372 0.791 1.111 1.472 2.218 2.045v0c0.945 0.488 1.881 0.797 2.807 0.927 0.923 0.136 1.922 0.174 2.998 0.116v0l6.527-12.635 2.378 1.229-8.321 16.107-1.867-0.964 0.407-2.041c-1.094 0.094-2.261 0.071-3.501-0.069-1.236-0.146-2.428-0.515-3.576-1.109z" fill="#ffffff" data-fill-palette-color="primary"></path><path d="M101.137 274.869l-2.185-0.757c-0.986-0.342-1.749-0.802-2.29-1.382-0.538-0.586-0.84-1.339-0.906-2.259-0.066-0.921 0.138-2.065 0.612-3.433v0l6.583-18.992 2.538 0.88-6.473 18.677c-0.355 1.024-0.528 1.83-0.517 2.418 0.014 0.596 0.167 1.059 0.459 1.389 0.294 0.323 0.674 0.604 1.14 0.844v0l1.671 0.793z" fill="#ffffff" data-fill-palette-color="primary"></path><path d="M128.546 279.707l-9.314-1.049 2.796-24.832 8.973 1.011c2.135 0.24 3.678 0.949 4.629 2.127 0.952 1.178 1.307 2.834 1.067 4.969v0c-0.117 1.037-0.375 1.919-0.776 2.647-0.4 0.727-0.892 1.306-1.476 1.734-0.583 0.422-1.212 0.687-1.888 0.794v0c0.436 0.164 0.893 0.402 1.373 0.713 0.479 0.318 0.916 0.74 1.311 1.266 0.396 0.519 0.693 1.155 0.893 1.91 0.2 0.748 0.245 1.617 0.133 2.607v0c-0.197 1.753-0.634 3.1-1.309 4.04-0.675 0.94-1.555 1.56-2.638 1.858-1.077 0.299-2.335 0.367-3.774 0.205zM123.25 267.259l-1.048 9.304 6.544 0.737c0.897 0.101 1.695 0.049 2.396-0.157 0.694-0.206 1.265-0.644 1.713-1.311 0.454-0.66 0.754-1.643 0.901-2.948v0c0.104-0.923-0.004-1.735-0.325-2.435-0.322-0.694-0.801-1.252-1.438-1.677-0.637-0.424-1.37-0.683-2.199-0.776v0zM124.454 256.559l-0.965 8.572 6.444 0.726c1.057 0.119 1.97-0.168 2.74-0.861 0.775-0.685 1.246-1.679 1.413-2.981v0c0.227-1.594 0.011-2.75-0.646-3.468-0.664-0.725-1.568-1.152-2.712-1.281v0z" fill="#ffffff" data-fill-palette-color="primary"></path><path d="M150.534 279.964v0c-1.31 0.083-2.465 0.021-3.463-0.185-0.999-0.213-1.848-0.635-2.549-1.266-0.695-0.637-1.238-1.551-1.631-2.741-0.392-1.19-0.648-2.722-0.767-4.597v0c-0.12-1.895-0.06-3.457 0.179-4.687 0.239-1.23 0.664-2.198 1.274-2.904 0.616-0.707 1.407-1.223 2.371-1.547 0.965-0.324 2.102-0.528 3.413-0.61v0c1.31-0.083 2.465-0.018 3.464 0.195 1.005 0.206 1.854 0.621 2.548 1.246 0.701 0.624 1.251 1.53 1.649 2.719 0.406 1.189 0.668 2.721 0.787 4.596v0c0.12 1.895 0.053 3.458-0.199 4.688-0.246 1.23-0.671 2.198-1.274 2.905-0.603 0.706-1.393 1.228-2.37 1.566-0.978 0.332-2.122 0.539-3.432 0.622zM150.395 277.767v0c0.84-0.053 1.574-0.181 2.202-0.382 0.635-0.195 1.153-0.545 1.553-1.05 0.4-0.504 0.681-1.237 0.843-2.199 0.169-0.962 0.203-2.223 0.105-3.782v0c-0.1-1.579-0.293-2.825-0.581-3.738-0.28-0.913-0.651-1.592-1.111-2.035-0.46-0.45-1.018-0.735-1.673-0.855-0.648-0.114-1.392-0.145-2.232-0.092v0c-0.86 0.054-1.601 0.179-2.223 0.374-0.621 0.201-1.132 0.554-1.533 1.058-0.4 0.498-0.682 1.217-0.845 2.159-0.17 0.942-0.205 2.202-0.105 3.781v0c0.099 1.559 0.292 2.805 0.581 3.739 0.282 0.934 0.653 1.625 1.113 2.075 0.46 0.45 1.011 0.732 1.653 0.847 0.642 0.121 1.393 0.155 2.253 0.1z" fill="#ffffff" data-fill-palette-color="primary"></path><path d="M173.522 276.187v0c-1.277 0.305-2.425 0.44-3.444 0.407-1.02-0.04-1.93-0.311-2.728-0.813-0.793-0.51-1.484-1.318-2.074-2.423-0.589-1.105-1.102-2.572-1.538-4.399v0c-0.441-1.847-0.648-3.397-0.621-4.649 0.026-1.252 0.28-2.279 0.76-3.079 0.487-0.802 1.178-1.444 2.074-1.928 0.895-0.484 1.982-0.878 3.258-1.183v0c1.277-0.305 2.426-0.437 3.447-0.397 1.025 0.032 1.933 0.297 2.723 0.794 0.797 0.495 1.493 1.295 2.089 2.398 0.602 1.102 1.122 2.567 1.557 4.395v0c0.441 1.847 0.641 3.398 0.602 4.654-0.033 1.254-0.287 2.28-0.76 3.079-0.474 0.798-1.164 1.448-2.069 1.947-0.907 0.493-1.999 0.892-3.276 1.197zM173.01 274.046v0c0.819-0.195 1.52-0.446 2.106-0.752 0.593-0.301 1.043-0.734 1.351-1.299 0.308-0.565 0.46-1.335 0.456-2.31 0.002-0.977-0.178-2.225-0.541-3.744v0c-0.367-1.539-0.77-2.734-1.208-3.585-0.432-0.852-0.912-1.458-1.441-1.816-0.53-0.365-1.128-0.551-1.795-0.558-0.658-0.002-1.397 0.095-2.215 0.29v0c-0.838 0.2-1.547 0.449-2.127 0.746-0.578 0.304-1.021 0.739-1.33 1.304-0.31 0.559-0.465 1.316-0.465 2.271-0.007 0.957 0.173 2.205 0.541 3.744v0c0.363 1.52 0.766 2.714 1.208 3.585 0.437 0.872 0.92 1.49 1.45 1.855 0.53 0.365 1.121 0.549 1.773 0.554 0.653 0.01 1.399-0.085 2.237-0.285z" fill="#ffffff" data-fill-palette-color="primary"></path><path d="M191.262 270.198l-2.475 1.044-10.069-23.871 2.476-1.044 5.833 13.829 2.382-1.005 2.281-8.81 2.633-1.111-2.596 10.27 10.014 6.278-2.624 1.107-8.872-5.466-2.28 0.962z" fill="#ffffff" data-fill-palette-color="primary"></path><path d="M223.62 251.715v0c-0.398 0.3-0.881 0.643-1.45 1.03-0.574 0.391-1.165 0.782-1.772 1.173-0.617 0.39-1.204 0.752-1.761 1.087-0.551 0.331-1.025 0.592-1.422 0.782v0l-1.247-1.653c0.476-0.308 1.053-0.689 1.732-1.142 0.679-0.453 1.398-0.953 2.158-1.501 0.765-0.552 1.507-1.099 2.228-1.642v0c0.817-0.616 1.49-1.25 2.019-1.903 0.529-0.652 0.823-1.342 0.881-2.069 0.063-0.722-0.214-1.492-0.831-2.308v0l-1.021-1.355c-0.693-0.919-1.454-1.442-2.283-1.568-0.834-0.122-1.775 0.213-2.824 1.004v0l-2.137 1.612c-1.645 1.241-3.206 1.849-4.683 1.824-1.473-0.019-2.879-0.915-4.218-2.689v0l-0.857-1.137c-1.415-1.876-1.917-3.593-1.507-5.151 0.411-1.558 1.538-3.032 3.382-4.424v0c0.581-0.438 1.253-0.899 2.018-1.383 0.774-0.483 1.531-0.939 2.269-1.369 0.738-0.43 1.368-0.77 1.888-1.02v0l1.247 1.653c-0.848 0.53-1.795 1.148-2.841 1.853-1.04 0.7-2.004 1.385-2.892 2.054v0c-0.812 0.612-1.445 1.238-1.899 1.875-0.455 0.638-0.66 1.316-0.617 2.034 0.044 0.718 0.4 1.52 1.069 2.407v0l0.693 0.92c0.835 1.107 1.699 1.649 2.592 1.625 0.887-0.02 1.847-0.419 2.88-1.198v0l2.306-1.739c1.102-0.831 2.155-1.314 3.16-1.447 1.004-0.133 1.942 0.02 2.813 0.459 0.867 0.434 1.641 1.103 2.323 2.006v0l1.167 1.548c1.006 1.333 1.497 2.578 1.475 3.733-0.027 1.15-0.412 2.221-1.157 3.213-0.743 0.982-1.704 1.918-2.881 2.806z" fill="#ffffff" data-fill-palette-color="primary"></path><path d="M241.574 235.017l-1.734 1.78c-0.818 0.839-1.634 1.402-2.449 1.689-0.811 0.282-1.651 0.253-2.523-0.089-0.866-0.346-1.804-1.024-2.812-2.034v0l-7.128-7.085-2.016 2.069-1.237-1.205 1.697-2.422-3.315-3.85 1.445-1.483 3.625 3.531 3.651-3.748 1.577 1.537-3.651 3.747 7.199 7.013c0.569 0.554 1.084 0.938 1.543 1.152 0.46 0.204 0.878 0.291 1.254 0.262 0.376-0.029 0.71-0.121 1.003-0.278 0.293-0.156 0.55-0.329 0.772-0.517v0l1.688-1.443z" fill="#ffffff" data-fill-palette-color="primary"></path><path d="M250.672 223.633v0c-0.781 1.055-1.573 1.898-2.374 2.527-0.807 0.626-1.677 1.004-2.611 1.134-0.935 0.12-1.984-0.053-3.147-0.52-1.162-0.467-2.499-1.259-4.008-2.378v0c-1.526-1.13-2.682-2.183-3.468-3.158-0.786-0.976-1.252-1.924-1.4-2.846-0.143-0.927-0.028-1.864 0.347-2.81 0.374-0.946 0.952-1.947 1.733-3.002v0c0.781-1.055 1.575-1.896 2.382-2.522 0.805-0.635 1.67-1.017 2.595-1.145 0.928-0.134 1.976 0.03 3.142 0.491 1.17 0.456 2.511 1.243 4.021 2.361v0c1.526 1.13 2.678 2.188 3.456 3.175 0.782 0.981 1.248 1.93 1.399 2.846 0.151 0.916 0.041 1.857-0.33 2.822-0.377 0.961-0.956 1.969-1.737 3.025zM248.902 222.322v0c0.501-0.676 0.877-1.32 1.128-1.93 0.26-0.612 0.326-1.233 0.198-1.863-0.128-0.631-0.507-1.318-1.138-2.062-0.627-0.749-1.568-1.588-2.823-2.518v0c-1.272-0.942-2.349-1.597-3.232-1.966-0.879-0.374-1.636-0.529-2.272-0.463-0.641 0.062-1.218 0.304-1.733 0.728-0.505 0.422-1.008 0.971-1.509 1.648v0c-0.513 0.693-0.895 1.339-1.147 1.94-0.247 0.605-0.306 1.223-0.179 1.854 0.122 0.627 0.491 1.306 1.106 2.037 0.611 0.737 1.552 1.576 2.823 2.518v0c1.256 0.93 2.333 1.585 3.233 1.966 0.895 0.386 1.663 0.549 2.303 0.487 0.641-0.062 1.212-0.301 1.713-0.718 0.507-0.413 1.016-0.965 1.529-1.658z" fill="#ffffff" data-fill-palette-color="primary"></path><path d="M260.404 207.778l-1.257 2.375-16.026-8.476 0.953-1.804 3.097 0.907c-0.482-1.177-0.767-2.359-0.854-3.548-0.09-1.183 0.171-2.355 0.785-3.516v0c0.148-0.28 0.297-0.54 0.447-0.78 0.15-0.241 0.316-0.454 0.498-0.639v0l2.429 1.284c-0.177 0.234-0.361 0.495-0.551 0.783-0.187 0.282-0.361 0.575-0.522 0.878v0c-0.39 0.738-0.651 1.446-0.78 2.124-0.121 0.675-0.14 1.366-0.056 2.072 0.086 0.716 0.24 1.49 0.462 2.324v0z" fill="#ffffff" data-fill-palette-color="primary"></path><path d="M269.103 187.92v0c-0.641 1.788-1.412 3.102-2.315 3.945-0.903 0.842-2.075 1.259-3.517 1.251-1.433-0.013-3.259-0.417-5.477-1.213v0c-2.257-0.809-3.937-1.669-5.042-2.579-1.104-0.911-1.726-1.981-1.864-3.211-0.139-1.23 0.109-2.729 0.743-4.498v0c0.541-1.509 1.153-2.677 1.836-3.505 0.681-0.822 1.513-1.317 2.497-1.487 0.988-0.161 2.204 0.017 3.649 0.535v0c1.002 0.359 1.736 0.844 2.204 1.455 0.468 0.611 0.703 1.332 0.705 2.163 0.003 0.831-0.175 1.747-0.534 2.748v0l-2.236 6.238c1.397 0.472 2.563 0.722 3.498 0.749 0.943 0.023 1.733-0.266 2.371-0.867 0.638-0.601 1.212-1.615 1.723-3.041v0l1.97-5.496 1.53 0.549c-0.223 1.022-0.458 2.017-0.706 2.987-0.254 0.968-0.599 2.06-1.035 3.277zM258.078 189.194v0l2.178-6.076c0.343-0.957 0.422-1.726 0.237-2.308-0.191-0.584-0.743-1.039-1.657-1.366v0c-0.983-0.352-1.797-0.483-2.444-0.393-0.641 0.092-1.185 0.402-1.631 0.928-0.44 0.529-0.843 1.304-1.209 2.324v0c-0.429 1.198-0.588 2.2-0.476 3.006 0.103 0.81 0.553 1.511 1.349 2.103 0.794 0.599 2.012 1.193 3.653 1.782z" fill="#ffffff" data-fill-palette-color="primary"></path><path d="M2.755 143.278c0-5.51 4.466-9.976 9.976-9.976 5.51 0 9.976 4.466 9.976 9.976 0 5.51-4.466 9.976-9.976 9.976-5.51 0-9.976-4.466-9.976-9.976z" fill="#ffffff" data-fill-palette-color="primary"></path><path d="M257.293 143.278c0-5.51 4.466-9.976 9.976-9.976 5.51 0 9.976 4.466 9.976 9.976 0 5.51-4.466 9.976-9.976 9.976-5.51 0-9.976-4.466-9.976-9.976z" fill="#ffffff" data-fill-palette-color="primary"></path></g><g id="text-1"></g></svg></g></svg></g></svg></g></svg></g><defs></defs></svg><rect width="280" height="280" fill="none" stroke="none" visibility="hidden"></rect></g></svg></g></svg>