<svg xmlns="http://www.w3.org/2000/svg" version="1.1" xmlns:xlink="http://www.w3.org/1999/xlink" xmlns:svgjs="http://svgjs.dev/svgjs" width="2000" height="469" viewBox="0 0 2000 469"><g transform="matrix(1,0,0,1,-1.2121212121212466,0.9940028859438712)"><svg viewBox="0 0 396 93" data-background-color="#ffffff" preserveAspectRatio="xMidYMid meet" height="469" width="2000" xmlns="http://www.w3.org/2000/svg" xmlns:xlink="http://www.w3.org/1999/xlink"><g id="tight-bounds" transform="matrix(1,0,0,1,0.2400000000000091,-0.19705697213623807)"><svg viewBox="0 0 395.52 93.39416202201424" height="93.39416202201424" width="395.52"><g><svg viewBox="0 0 545.2808536006595 128.75720162996112" height="93.39416202201424" width="395.52"><g transform="matrix(1,0,0,1,149.76085360065952,46.584626018136845)"><svg viewBox="0 0 395.52 35.58794959368743" height="35.58794959368743" width="395.52"><g id="textblocktransform"><svg viewBox="0 0 395.52 35.58794959368743" height="35.58794959368743" width="395.52" id="textblock"><g><svg viewBox="0 0 395.52 35.58794959368743" height="35.58794959368743" width="395.52"><g transform="matrix(1,0,0,1,0,0)"><svg width="395.52" viewBox="4 -37.5 424.51 38.2" height="35.58794959368743" data-palette-color="#ff5858"><path d="M9 0L4 0 4-35 15.55-35Q19.07-35 21.75-33.88 24.43-32.75 25.91-30.25 27.4-27.75 27.4-23.65L27.4-23.65Q27.4-19.63 25.91-17.11 24.43-14.6 21.75-13.43 19.07-12.25 15.55-12.25L15.55-12.25 9-12.25 9 0ZM9-30.75L9-16.5 14.85-16.5Q18.68-16.5 20.59-18.24 22.5-19.98 22.5-23.6L22.5-23.6Q22.5-27.25 20.69-29 18.88-30.75 14.85-30.75L14.85-30.75 9-30.75ZM35.9 0L31.35 0 31.35-37.5 35.9-37.5 35.9-20.25 34.3-20.35Q36.02-22.53 38.01-23.76 40-25 43.1-25L43.1-25Q46.27-25 48.4-23.58 50.52-22.15 51.59-19.6 52.65-17.05 52.65-13.65L52.65-13.65 52.65 0 48.15 0 48.15-13.1Q48.15-17.15 46.66-19.07 45.17-21 42.1-21L42.1-21Q39.77-21 37.98-19.75 36.2-18.5 35.15-16.4L35.15-16.4 35.9-19.15 35.9 0ZM69.2 0.5L69.2 0.5Q65.35 0.5 62.63-1.21 59.92-2.93 58.48-5.81 57.05-8.7 57.05-12.25L57.05-12.25Q57.05-15.8 58.48-18.69 59.92-21.58 62.63-23.29 65.35-25 69.2-25L69.2-25Q73.02-25 75.75-23.29 78.47-21.58 79.91-18.69 81.35-15.8 81.35-12.25L81.35-12.25Q81.35-8.7 79.91-5.81 78.47-2.93 75.75-1.21 73.02 0.5 69.2 0.5ZM69.2-3.5L69.2-3.5Q72.85-3.5 74.8-5.81 76.75-8.13 76.75-12.25L76.75-12.25Q76.75-16.38 74.8-18.69 72.85-21 69.2-21L69.2-21Q65.57-21 63.61-18.69 61.65-16.38 61.65-12.25L61.65-12.25Q61.65-8.13 63.61-5.81 65.57-3.5 69.2-3.5ZM90.49 0L85.99 0 85.99-24.5 89.49-24.5 90.39-19.8 88.64-20.55Q91.12-23.3 93.48-24.15 95.84-25 98.09-25L98.09-25Q103.47-25 105.78-21.9 108.09-18.8 108.09-13.5L108.09-13.5 108.09 0 103.59 0 103.59-13.5Q103.59-17.4 102.14-19.2 100.69-21 97.19-21L97.19-21Q94.72-21 92.66-19.91 90.59-18.82 89.94-16.45L89.94-16.45 90.49-19.2 90.49 0ZM125.69 0.5L125.69 0.5Q121.37 0.5 118.42-1.28 115.47-3.05 113.95-5.99 112.44-8.93 112.44-12.45L112.44-12.45Q112.44-15.88 113.85-18.73 115.27-21.58 117.95-23.29 120.64-25 124.44-25L124.44-25Q127.49-25 129.88-23.79 132.27-22.58 133.63-20.26 134.99-17.95 134.99-14.65L134.99-14.65Q134.99-14.13 134.95-13.51 134.92-12.9 134.79-12.25L134.79-12.25 117.04-12.25Q117.37-8.85 118.67-6.95 119.97-5.05 121.94-4.28 123.92-3.5 126.24-3.5L126.24-3.5Q127.94-3.5 129.79-3.85 131.64-4.2 133.29-4.95L133.29-4.95 133.89-1.4Q132.47-0.78 130.42-0.14 128.37 0.5 125.69 0.5ZM117.44-15.35L117.44-15.35 130.34-15.35Q130.34-17.07 129.69-18.35 129.04-19.63 127.72-20.31 126.39-21 124.34-21L124.34-21Q121.34-21 119.73-19.51 118.12-18.03 117.44-15.35ZM173.54 0L151.74 0 151.74-35 173.09-35 173.09-30.7 156.49-30.7 156.49-20.45 169.69-20.45 169.69-16.15 156.49-16.15 156.49-4.3 173.54-4.3 173.54 0ZM193.18-13.4L177.68-13.4 177.68-17.7 193.18-17.7 193.18-13.4ZM215.63 0.7L215.63 0.7Q210.53 0.7 206.54-1.54 202.56-3.78 200.27-7.86 197.98-11.95 197.98-17.5L197.98-17.5Q197.98-23.05 200.29-27.14 202.61-31.23 206.64-33.46 210.68-35.7 215.83-35.7L215.83-35.7Q218.51-35.7 220.93-35.13 223.36-34.55 225.18-33.65L225.18-33.65 224.68-29.25Q222.81-30.15 220.56-30.78 218.31-31.4 215.78-31.4L215.78-31.4Q211.66-31.4 208.86-29.54 206.06-27.68 204.62-24.53 203.18-21.38 203.18-17.5L203.18-17.5Q203.18-13.63 204.59-10.48 206.01-7.33 208.79-5.46 211.58-3.6 215.68-3.6L215.68-3.6Q218.28-3.6 220.49-4.16 222.71-4.73 224.68-5.7L224.68-5.7 225.18-1.3Q223.31-0.45 220.96 0.13 218.61 0.7 215.63 0.7ZM239.88 0.5L239.88 0.5Q236.03 0.5 233.32-1.21 230.6-2.93 229.17-5.81 227.73-8.7 227.73-12.25L227.73-12.25Q227.73-15.8 229.17-18.69 230.6-21.58 233.32-23.29 236.03-25 239.88-25L239.88-25Q243.7-25 246.43-23.29 249.15-21.58 250.59-18.69 252.03-15.8 252.03-12.25L252.03-12.25Q252.03-8.7 250.59-5.81 249.15-2.93 246.43-1.21 243.7 0.5 239.88 0.5ZM239.88-3.5L239.88-3.5Q243.53-3.5 245.48-5.81 247.43-8.13 247.43-12.25L247.43-12.25Q247.43-16.38 245.48-18.69 243.53-21 239.88-21L239.88-21Q236.25-21 234.29-18.69 232.33-16.38 232.33-12.25L232.33-12.25Q232.33-8.13 234.29-5.81 236.25-3.5 239.88-3.5ZM261.18 0L256.68 0 256.68-24.5 260.18-24.5 261.08-19.8 259.38-20.6Q261.68-23.08 263.85-24.04 266.03-25 268.43-25L268.43-25Q270.23-25 271.89-24.41 273.55-23.83 274.89-22.36 276.23-20.9 277.03-18.3L277.03-18.3 275.78-18.85Q276.88-21.7 279.15-23.35 281.43-25 285.28-25L285.28-25Q288.35-25 290.45-23.86 292.55-22.73 293.61-20.39 294.68-18.05 294.68-14.45L294.68-14.45 294.68 0 290.18 0 290.18-14.4Q290.18-17.85 288.83-19.43 287.48-21 284.43-21L284.43-21Q282.28-21 280.98-20.34 279.68-19.68 279.01-18.63 278.35-17.57 278.14-16.4 277.93-15.23 277.93-14.2L277.93-14.2 277.93 0 273.43 0 273.43-13.5Q273.43-16.5 272.7-18.13 271.98-19.75 270.68-20.38 269.38-21 267.68-21L267.68-21Q265.2-21 263.25-19.91 261.3-18.82 260.63-16.45L260.63-16.45 261.18-18.9 261.18 0ZM305.02 0L300.52 0 300.52-24.5 304.02-24.5 304.92-19.8 303.22-20.6Q305.52-23.08 307.7-24.04 309.87-25 312.27-25L312.27-25Q314.07-25 315.74-24.41 317.4-23.83 318.74-22.36 320.07-20.9 320.87-18.3L320.87-18.3 319.62-18.85Q320.72-21.7 323-23.35 325.27-25 329.12-25L329.12-25Q332.2-25 334.3-23.86 336.4-22.73 337.46-20.39 338.52-18.05 338.52-14.45L338.52-14.45 338.52 0 334.02 0 334.02-14.4Q334.02-17.85 332.67-19.43 331.32-21 328.27-21L328.27-21Q326.12-21 324.82-20.34 323.52-19.68 322.86-18.63 322.2-17.57 321.99-16.4 321.77-15.23 321.77-14.2L321.77-14.2 321.77 0 317.27 0 317.27-13.5Q317.27-16.5 316.55-18.13 315.82-19.75 314.52-20.38 313.22-21 311.52-21L311.52-21Q309.05-21 307.1-19.91 305.15-18.82 304.47-16.45L304.47-16.45 305.02-18.9 305.02 0ZM356.12 0.5L356.12 0.5Q351.8 0.5 348.85-1.28 345.9-3.05 344.38-5.99 342.87-8.93 342.87-12.45L342.87-12.45Q342.87-15.88 344.28-18.73 345.7-21.58 348.38-23.29 351.07-25 354.87-25L354.87-25Q357.92-25 360.31-23.79 362.7-22.58 364.06-20.26 365.42-17.95 365.42-14.65L365.42-14.65Q365.42-14.13 365.38-13.51 365.35-12.9 365.22-12.25L365.22-12.25 347.47-12.25Q347.8-8.85 349.1-6.95 350.4-5.05 352.37-4.28 354.35-3.5 356.67-3.5L356.67-3.5Q358.37-3.5 360.22-3.85 362.07-4.2 363.72-4.95L363.72-4.95 364.32-1.4Q362.9-0.78 360.85-0.14 358.8 0.5 356.12 0.5ZM347.87-15.35L347.87-15.35 360.77-15.35Q360.77-17.07 360.12-18.35 359.47-19.63 358.15-20.31 356.82-21 354.77-21L354.77-21Q351.77-21 350.16-19.51 348.55-18.03 347.87-15.35ZM374.77 0L369.97 0 369.97-24.5 373.67-24.5 374.22-20.45Q376.09-22.78 377.81-23.89 379.52-25 381.47-25L381.47-25Q382.09-25 382.62-24.85L382.62-24.85 382.17-19.9Q381.84-19.98 381.48-20.01 381.12-20.05 380.67-20.05L380.67-20.05Q378.72-20.05 377.08-19.19 375.44-18.32 374.77-17.3L374.77-17.3 374.77 0ZM396.37 0.5L396.37 0.5Q392.22 0.5 389.4-1.19 386.59-2.88 385.15-5.74 383.72-8.6 383.72-12.1L383.72-12.1Q383.72-15.75 385.1-18.68 386.49-21.6 389.37-23.3 392.24-25 396.72-25L396.72-25Q398.64-25 400.35-24.61 402.07-24.23 403.42-23.55L403.42-23.55 402.72-19.6Q401.34-20.25 399.8-20.63 398.27-21 396.62-21L396.62-21Q392.57-21 390.44-18.7 388.32-16.4 388.32-12.3L388.32-12.3Q388.32-8.3 390.34-5.88 392.37-3.45 396.52-3.45L396.52-3.45Q398.22-3.45 399.78-3.85 401.34-4.25 402.77-4.95L402.77-4.95 403.37-1.35Q402.37-0.65 400.44-0.08 398.52 0.5 396.37 0.5ZM419.21 0.5L419.21 0.5Q414.89 0.5 411.94-1.28 408.99-3.05 407.48-5.99 405.96-8.93 405.96-12.45L405.96-12.45Q405.96-15.88 407.38-18.73 408.79-21.58 411.48-23.29 414.16-25 417.96-25L417.96-25Q421.01-25 423.4-23.79 425.79-22.58 427.15-20.26 428.51-17.95 428.51-14.65L428.51-14.65Q428.51-14.13 428.48-13.51 428.44-12.9 428.31-12.25L428.31-12.25 410.56-12.25Q410.89-8.85 412.19-6.95 413.49-5.05 415.46-4.28 417.44-3.5 419.76-3.5L419.76-3.5Q421.46-3.5 423.31-3.85 425.16-4.2 426.81-4.95L426.81-4.95 427.41-1.4Q425.99-0.78 423.94-0.14 421.89 0.5 419.21 0.5ZM410.96-15.35L410.96-15.35 423.86-15.35Q423.86-17.07 423.21-18.35 422.56-19.63 421.24-20.31 419.91-21 417.86-21L417.86-21Q414.86-21 413.25-19.51 411.64-18.03 410.96-15.35Z" opacity="1" transform="matrix(1,0,0,1,0,0)" fill="#ffffff" class="wordmark-text-0" data-fill-palette-color="primary" id="text-0"></path></svg></g></svg></g></svg></g></svg></g><g><svg viewBox="0 0 128.75720162996112 128.75720162996112" height="128.75720162996112" width="128.75720162996112"><g><svg viewBox="0 0 128.75720162996112 128.75720162996112" height="128.75720162996112" width="128.75720162996112"><g transform="matrix(1,0,0,1,36.34385089787938,34.03023734859753)"><svg viewBox="0 0 56.069499834202354 60.696726932766055" height="60.696726932766055" width="56.069499834202354"><g><svg xmlns="http://www.w3.org/2000/svg" xmlns:xlink="http://www.w3.org/1999/xlink" version="1.1" x="0" y="0" viewBox="8.846157414896705 5.049677379939029 83.07013900542992 89.92563797410281" enable-background="new 0 0 100 100" xml:space="preserve" height="60.696726932766055" width="56.069499834202354" class="icon-cg-0" data-fill-palette-color="accent" id="cg-0"><path d="M90.1 75.1l-0.5-1c-1.4-3.3-18.6-8.3-20-8.4l-1.1 0.1c-2.1 0.4-4.4 2.3-8.9 6.2-0.9 0.8-2.1 1-3.2 0.4-5.9-3.3-13.1-9.9-16.7-13.9-3.9-4.3-8.6-11.4-10.8-17.1-0.4-1.1 0-2.3 0.8-3.1 5.1-4.6 7.3-6.8 7.5-9.2 0.1-1.4-2.9-19.1-6-20.8l-0.9-0.6c-2-1.3-5-3.2-8.3-2.5-0.8 0.2-1.6 0.5-2.3 0.9C17.5 7.5 12 11.3 9.5 16.2 8 19.3 7.3 47.4 28.3 71.1c20.8 23.5 46.5 24.5 50.3 23.7l0.1 0 0.3-0.1c5.2-1.9 9.6-6.8 11.3-8.9C93.4 82.1 91.3 77.6 90.1 75.1z" fill="#ffffff" data-fill-palette-color="accent"></path></svg></g></svg></g><g id="text-0"><path d="M11.738 49.133l-0.455 1.387-9.719-3.187 1.051-3.208c0.212-0.648 0.504-1.186 0.875-1.615 0.371-0.429 0.834-0.705 1.39-0.83 0.548-0.12 1.202-0.055 1.964 0.195v0c0.742 0.243 1.302 0.577 1.679 0.999 0.375 0.429 0.591 0.929 0.648 1.498 0.051 0.567-0.03 1.175-0.243 1.823v0l-0.597 1.821zM3.198 46.333l3.954 1.296 0.532-1.623c0.233-0.711 0.247-1.295 0.041-1.752-0.205-0.457-0.645-0.797-1.317-1.017v0c-0.673-0.221-1.225-0.217-1.655 0.011-0.439 0.232-0.779 0.72-1.023 1.462v0z" fill="#ffffff" data-fill-palette-color="accent"></path><path d="M15.138 40.696l-0.619 1.178-9.703-5.103 0.619-1.178 4.465 2.348-0.244 0.399c-0.218-0.496-0.343-0.969-0.375-1.42-0.035-0.46 0.088-0.956 0.368-1.489v0c0.29-0.551 0.653-0.943 1.09-1.177 0.44-0.24 0.928-0.335 1.463-0.286 0.535 0.049 1.095 0.228 1.682 0.537v0l3.533 1.858-0.61 1.16-3.393-1.784c-0.697-0.367-1.278-0.507-1.741-0.422-0.47 0.082-0.843 0.387-1.121 0.914v0c-0.213 0.404-0.291 0.816-0.234 1.235 0.053 0.425 0.211 0.822 0.473 1.191v0l-0.61-0.568z" fill="#ffffff" data-fill-palette-color="accent"></path><path d="M21.16 31.571v0c-0.461 0.597-0.986 1-1.573 1.207-0.586 0.217-1.188 0.266-1.807 0.147-0.615-0.124-1.198-0.398-1.748-0.823v0c-0.545-0.421-0.955-0.913-1.231-1.477-0.271-0.569-0.376-1.165-0.314-1.787 0.053-0.62 0.309-1.229 0.771-1.826v0c0.453-0.587 0.975-0.987 1.566-1.199 0.59-0.222 1.192-0.271 1.808-0.147 0.615 0.124 1.195 0.396 1.74 0.817v0c0.55 0.425 0.963 0.919 1.238 1.483 0.275 0.564 0.38 1.159 0.315 1.787-0.057 0.626-0.311 1.232-0.765 1.818zM20.233 30.855v0c0.433-0.561 0.587-1.128 0.461-1.702-0.122-0.579-0.502-1.115-1.141-1.609v0c-0.634-0.49-1.246-0.72-1.838-0.692-0.587 0.023-1.097 0.315-1.53 0.876v0c-0.433 0.561-0.589 1.13-0.467 1.71 0.122 0.579 0.499 1.113 1.133 1.603v0c0.639 0.494 1.254 0.726 1.846 0.698 0.591-0.029 1.103-0.323 1.536-0.884z" fill="#ffffff" data-fill-palette-color="accent"></path><path d="M26.032 25.912l-0.959 0.894-4.881-5.238 0.748-0.698 1.124 0.827-0.52 0.185c-0.012-0.722 0.093-1.299 0.314-1.731 0.226-0.437 0.499-0.804 0.819-1.103v0c0.765-0.713 1.518-1.003 2.258-0.869 0.745 0.139 1.469 0.586 2.173 1.342v0l2.688 2.884-0.959 0.894-2.688-2.885c-0.519-0.557-1.002-0.867-1.45-0.929-0.447-0.063-0.921 0.139-1.419 0.603v0c-0.349 0.325-0.599 0.703-0.75 1.133-0.151 0.43-0.115 0.858 0.109 1.283v0l-0.432-0.697z" fill="#ffffff" data-fill-palette-color="accent"></path><path d="M35.176 18.948v0c-0.71 0.463-1.401 0.705-2.075 0.726-0.665 0.023-1.278-0.122-1.839-0.436-0.559-0.323-1.025-0.77-1.397-1.341v0c-0.366-0.56-0.587-1.147-0.663-1.761-0.071-0.618 0.022-1.208 0.278-1.771 0.253-0.569 0.69-1.056 1.312-1.461v0c0.499-0.326 1.008-0.515 1.526-0.569 0.518-0.054 1.011 0.035 1.479 0.267 0.468 0.232 0.877 0.617 1.228 1.155v0c0.054 0.083 0.111 0.176 0.171 0.28 0.06 0.103 0.113 0.215 0.159 0.335v0l-4.34 2.834c0.421 0.524 0.836 0.869 1.246 1.036 0.413 0.173 0.822 0.218 1.227 0.136 0.405-0.082 0.798-0.248 1.181-0.498v0c0.277-0.181 0.547-0.397 0.81-0.648 0.265-0.26 0.491-0.538 0.678-0.834v0l0.719 0.776c-0.168 0.252-0.383 0.539-0.647 0.861-0.269 0.326-0.62 0.63-1.053 0.913zM30.621 16.384v0l3.151-2.058c-0.185-0.283-0.396-0.492-0.636-0.628-0.243-0.142-0.509-0.198-0.797-0.168-0.289 0.03-0.599 0.154-0.932 0.371v0c-0.488 0.318-0.785 0.687-0.892 1.104-0.101 0.414-0.066 0.873 0.106 1.379z" fill="#ffffff" data-fill-palette-color="accent"></path><path d="M50.414 12.029l-6.013 2.087-3.354-9.663 5.892-2.044 0.41 1.182-4.578 1.588 0.983 2.834 3.64-1.264 0.414 1.192-3.64 1.263 1.133 3.265 4.7-1.631z" fill="#ffffff" data-fill-palette-color="accent"></path><path d="M56.652 6.881l-4.453 0.825-0.229-1.24 4.452-0.825z" fill="#ffffff" data-fill-palette-color="accent"></path><path d="M65.191 10.646v0c-0.993 0.017-1.884-0.186-2.672-0.61-0.782-0.424-1.402-1.029-1.859-1.815-0.464-0.793-0.705-1.729-0.724-2.808v0c-0.019-1.079 0.19-2.023 0.627-2.832 0.443-0.802 1.051-1.428 1.825-1.878 0.78-0.45 1.673-0.684 2.68-0.702v0c0.516-0.009 1.014 0.039 1.492 0.143 0.472 0.104 0.888 0.243 1.249 0.416v0l-0.127 1.283c-0.367-0.166-0.77-0.308-1.209-0.426-0.439-0.112-0.907-0.163-1.403-0.155v0c-0.801 0.014-1.473 0.207-2.017 0.581-0.537 0.373-0.939 0.867-1.206 1.481-0.274 0.62-0.405 1.308-0.391 2.063v0c0.013 0.755 0.164 1.437 0.452 2.048 0.288 0.604 0.707 1.084 1.256 1.438 0.549 0.355 1.221 0.525 2.015 0.512v0c0.51-0.009 0.979-0.073 1.407-0.193 0.428-0.113 0.833-0.269 1.214-0.468v0l0.171 1.288c-0.361 0.172-0.769 0.318-1.224 0.438-0.461 0.12-0.98 0.186-1.556 0.196z" fill="#ffffff" data-fill-palette-color="accent"></path><path d="M73.432 11.329v0c-0.745-0.118-1.35-0.384-1.815-0.799-0.471-0.41-0.804-0.915-0.997-1.515-0.187-0.599-0.226-1.242-0.118-1.929v0c0.107-0.68 0.342-1.276 0.705-1.789 0.369-0.511 0.841-0.889 1.416-1.133 0.569-0.252 1.227-0.319 1.972-0.202v0c0.732 0.116 1.334 0.382 1.804 0.798 0.478 0.411 0.81 0.916 0.998 1.515 0.187 0.599 0.227 1.239 0.119 1.919v0c-0.108 0.687-0.344 1.286-0.706 1.799-0.362 0.512-0.834 0.89-1.416 1.133-0.576 0.251-1.23 0.318-1.962 0.203zM73.614 10.171v0c0.7 0.111 1.271-0.027 1.714-0.412 0.45-0.385 0.737-0.976 0.864-1.774v0c0.125-0.791 0.033-1.439-0.276-1.944-0.303-0.504-0.804-0.811-1.504-0.921v0c-0.7-0.111-1.274 0.027-1.724 0.411-0.45 0.385-0.737 0.973-0.861 1.764v0c-0.126 0.798-0.035 1.449 0.274 1.954 0.309 0.505 0.813 0.812 1.513 0.922z" fill="#ffffff" data-fill-palette-color="accent"></path><path d="M80.573 12.919l-1.228-0.461 2.517-6.703 0.958 0.36-0.24 1.374-0.385-0.389c0.591-0.294 1.118-0.454 1.58-0.478 0.464-0.031 0.916 0.036 1.356 0.202v0c0.328 0.123 0.621 0.297 0.877 0.52 0.264 0.219 0.47 0.509 0.618 0.868 0.142 0.357 0.198 0.799 0.17 1.326v0l-0.288-0.277c0.394-0.446 0.854-0.74 1.381-0.882 0.529-0.148 1.144-0.09 1.844 0.173v0c0.564 0.212 0.999 0.495 1.304 0.85 0.307 0.349 0.477 0.773 0.509 1.273 0.032 0.5-0.076 1.078-0.323 1.735v0l-1.484 3.951-1.227-0.461 1.48-3.942c0.235-0.626 0.283-1.131 0.145-1.515-0.141-0.378-0.49-0.672-1.048-0.882v0c-0.39-0.147-0.726-0.205-1.005-0.175-0.282 0.036-0.521 0.126-0.718 0.271-0.19 0.148-0.346 0.319-0.468 0.514-0.119 0.203-0.213 0.397-0.283 0.583v0l-1.459 3.886-1.227-0.461 1.386-3.69c0.207-0.552 0.297-0.999 0.27-1.342-0.018-0.346-0.123-0.623-0.315-0.828-0.194-0.2-0.448-0.359-0.764-0.478v0c-0.446-0.168-0.886-0.22-1.321-0.157-0.428 0.066-0.785 0.292-1.072 0.68v0l0.401-0.614z" fill="#ffffff" data-fill-palette-color="accent"></path><path d="M93.072 18.55l-1.076-0.749 4.093-5.875 0.839 0.585-0.571 1.272-0.277-0.471c0.646-0.139 1.195-0.164 1.649-0.074 0.457 0.085 0.879 0.261 1.265 0.53v0c0.288 0.201 0.528 0.441 0.72 0.72 0.202 0.278 0.33 0.609 0.385 0.994 0.049 0.381-0.005 0.824-0.162 1.327v0l-0.211-0.34c0.492-0.335 1.01-0.506 1.556-0.514 0.549-0.013 1.131 0.195 1.745 0.623v0c0.494 0.344 0.846 0.726 1.054 1.145 0.212 0.414 0.272 0.867 0.178 1.359-0.093 0.492-0.34 1.026-0.74 1.602v0l-2.413 3.463-1.075-0.749 2.406-3.455c0.382-0.549 0.554-1.026 0.515-1.433-0.043-0.401-0.309-0.772-0.799-1.113v0c-0.342-0.238-0.653-0.378-0.93-0.418-0.282-0.035-0.536-0.006-0.763 0.086-0.221 0.097-0.414 0.224-0.58 0.382-0.165 0.167-0.304 0.333-0.418 0.496v0l-2.373 3.406-1.075-0.75 2.253-3.234c0.337-0.483 0.534-0.894 0.593-1.234 0.068-0.34 0.034-0.634-0.101-0.88-0.138-0.242-0.346-0.459-0.623-0.652v0c-0.391-0.272-0.805-0.432-1.241-0.477-0.431-0.042-0.833 0.089-1.206 0.394v0l0.539-0.496z" fill="#ffffff" data-fill-palette-color="accent"></path><path d="M105.289 28.792v0c-0.578-0.619-0.936-1.259-1.072-1.92-0.137-0.651-0.099-1.28 0.114-1.886 0.222-0.606 0.583-1.142 1.081-1.607v0c0.489-0.456 1.029-0.775 1.621-0.956 0.596-0.176 1.194-0.186 1.793-0.029 0.604 0.152 1.159 0.499 1.664 1.041v0c0.407 0.436 0.681 0.904 0.823 1.405 0.142 0.501 0.139 1.002-0.009 1.503-0.148 0.501-0.457 0.97-0.927 1.409v0c-0.073 0.068-0.155 0.14-0.247 0.216-0.092 0.076-0.192 0.148-0.302 0.215v0l-3.537-3.79c-0.444 0.505-0.713 0.973-0.807 1.406-0.099 0.437-0.074 0.848 0.077 1.232 0.151 0.385 0.382 0.744 0.693 1.078v0c0.226 0.242 0.485 0.471 0.777 0.687 0.302 0.216 0.614 0.391 0.938 0.524v0l-0.64 0.842c-0.277-0.122-0.597-0.285-0.96-0.49-0.368-0.209-0.727-0.503-1.08-0.88zM107.033 23.863v0l2.568 2.752c0.247-0.23 0.417-0.475 0.51-0.734 0.098-0.264 0.107-0.535 0.028-0.814-0.079-0.279-0.255-0.564-0.526-0.855v0c-0.398-0.426-0.811-0.656-1.241-0.689-0.425-0.029-0.872 0.085-1.339 0.34z" fill="#ffffff" data-fill-palette-color="accent"></path><path d="M109.674 33.995l-0.81-1.142 5.841-4.141 0.626 0.883-0.872 0.813c0.578 0.037 1.052 0.127 1.421 0.271 0.373 0.149 0.669 0.378 0.888 0.685v0c0.073 0.103 0.124 0.204 0.154 0.304v0l-1.249 0.728c-0.027-0.062-0.058-0.121-0.091-0.179-0.037-0.063-0.08-0.13-0.129-0.201v0c-0.222-0.313-0.492-0.552-0.812-0.715-0.324-0.16-0.606-0.236-0.844-0.229v0z" fill="#ffffff" data-fill-palette-color="accent"></path><path d="M113.48 40.708v0c-0.382-0.712-0.557-1.388-0.525-2.029 0.032-0.641 0.227-1.215 0.586-1.723 0.359-0.508 0.838-0.923 1.439-1.245v0c0.63-0.338 1.259-0.525 1.885-0.561 0.63-0.03 1.224 0.125 1.782 0.464 0.555 0.334 1.038 0.885 1.451 1.655v0c0.178 0.333 0.311 0.663 0.398 0.993 0.095 0.332 0.146 0.643 0.151 0.933v0l-1.109 0.37c-0.017-0.299-0.065-0.596-0.141-0.894-0.077-0.297-0.192-0.588-0.345-0.874v0c-0.372-0.694-0.856-1.119-1.45-1.273-0.585-0.152-1.23-0.039-1.936 0.34v0c-0.688 0.369-1.146 0.84-1.372 1.412-0.23 0.566-0.153 1.205 0.228 1.917v0c0.156 0.292 0.339 0.555 0.547 0.789 0.214 0.231 0.448 0.436 0.702 0.615v0l-0.843 0.655c-0.216-0.109-0.462-0.301-0.736-0.574-0.278-0.279-0.515-0.603-0.712-0.97z" fill="#ffffff" data-fill-palette-color="accent"></path><path d="M116.529 48.069v0c-0.285-0.798-0.359-1.527-0.221-2.188 0.133-0.652 0.417-1.214 0.853-1.686 0.445-0.468 0.988-0.816 1.631-1.045v0c0.63-0.225 1.252-0.303 1.867-0.234 0.617 0.075 1.17 0.303 1.657 0.685 0.494 0.379 0.865 0.918 1.114 1.616v0c0.2 0.561 0.266 1.1 0.197 1.617-0.069 0.517-0.271 0.975-0.605 1.376-0.335 0.401-0.805 0.709-1.41 0.924v0c-0.094 0.033-0.198 0.067-0.312 0.101-0.114 0.034-0.235 0.059-0.363 0.077v0l-1.742-4.883c-0.608 0.287-1.041 0.61-1.299 0.97-0.265 0.362-0.404 0.749-0.418 1.161-0.014 0.413 0.055 0.834 0.209 1.265v0c0.111 0.312 0.258 0.625 0.44 0.939 0.191 0.318 0.408 0.603 0.652 0.854v0l-0.922 0.518c-0.206-0.222-0.434-0.499-0.686-0.83-0.254-0.338-0.468-0.75-0.642-1.237zM120.087 44.238v0l1.264 3.545c0.318-0.113 0.571-0.271 0.76-0.472 0.195-0.203 0.311-0.448 0.349-0.736 0.038-0.288-0.01-0.619-0.143-0.992v0c-0.196-0.549-0.484-0.924-0.866-1.125-0.379-0.195-0.834-0.268-1.364-0.22z" fill="#ffffff" data-fill-palette-color="accent"></path><path d="M4.765 84.939l-0.495-1.489 10.403-3.46 1.14 3.43c0.234 0.704 0.329 1.356 0.285 1.957-0.051 0.603-0.275 1.135-0.673 1.595-0.398 0.46-1.002 0.825-1.813 1.094v0c-0.798 0.265-1.494 0.333-2.088 0.203-0.594-0.13-1.099-0.419-1.513-0.868-0.408-0.45-0.729-1.027-0.963-1.731v0l-0.646-1.941zM13.905 81.899l-4.24 1.41 0.576 1.734c0.253 0.76 0.615 1.271 1.086 1.533 0.473 0.268 1.068 0.283 1.784 0.045v0c0.729-0.242 1.206-0.6 1.432-1.073 0.224-0.479 0.204-1.118-0.061-1.915v0z" fill="#ffffff" data-fill-palette-color="accent"></path><path d="M8.657 94.466l-0.666-1.255 10.379-5.505 0.665 1.255-4.772 2.531-0.207-0.452c0.571 0.102 1.068 0.276 1.492 0.524 0.42 0.242 0.783 0.649 1.087 1.222v0c0.31 0.585 0.438 1.143 0.382 1.674-0.055 0.531-0.267 1.022-0.635 1.473-0.366 0.441-0.861 0.828-1.487 1.159v0l-3.781 2.006-0.656-1.237 3.623-1.922c0.749-0.397 1.228-0.828 1.439-1.292 0.205-0.461 0.157-0.975-0.144-1.542v0c-0.23-0.433-0.545-0.752-0.947-0.959-0.402-0.207-0.851-0.305-1.348-0.297v0l0.875-0.194z" fill="#ffffff" data-fill-palette-color="accent"></path><path d="M15.217 104.912v0c-0.496-0.637-0.776-1.288-0.839-1.951-0.068-0.669 0.045-1.306 0.337-1.911 0.288-0.61 0.725-1.143 1.311-1.599v0c0.585-0.455 1.209-0.748 1.871-0.877 0.664-0.139 1.311-0.094 1.943 0.136 0.628 0.225 1.19 0.656 1.686 1.293v0c0.488 0.627 0.766 1.275 0.833 1.944 0.068 0.669-0.046 1.311-0.339 1.925-0.292 0.605-0.731 1.135-1.317 1.59v0c-0.585 0.455-1.207 0.751-1.865 0.886-0.662 0.13-1.31 0.08-1.941-0.15-0.632-0.23-1.192-0.658-1.68-1.286zM16.205 104.144v0c0.468 0.601 1.016 0.912 1.645 0.934 0.633 0.027 1.29-0.224 1.969-0.752v0c0.684-0.533 1.089-1.107 1.213-1.724 0.133-0.616-0.034-1.224-0.501-1.825v0c-0.468-0.601-1.018-0.915-1.652-0.941-0.624-0.026-1.279 0.227-1.963 0.76v0c-0.679 0.529-1.086 1.101-1.219 1.716-0.129 0.621 0.04 1.232 0.508 1.832z" fill="#ffffff" data-fill-palette-color="accent"></path><path d="M21.052 111.141l-1.034-0.959 5.218-5.629 0.808 0.749-0.795 1.267-0.245-0.539c0.77-0.071 1.396-0.006 1.876 0.196 0.486 0.206 0.901 0.469 1.246 0.789v0c0.821 0.761 1.188 1.543 1.101 2.347-0.087 0.804-0.506 1.612-1.257 2.423v0l-2.876 3.103-1.034-0.959 2.876-3.103c0.554-0.597 0.849-1.135 0.887-1.614 0.029-0.479-0.226-0.968-0.765-1.468v0c-0.379-0.351-0.802-0.59-1.272-0.718-0.469-0.127-0.92-0.054-1.354 0.22v0l0.711-0.519z" fill="#ffffff" data-fill-palette-color="accent"></path><path d="M31.15 119.199v0c-0.761-0.494-1.298-1.064-1.613-1.71-0.314-0.646-0.435-1.312-0.36-1.998 0.069-0.689 0.303-1.342 0.704-1.959v0c0.389-0.6 0.869-1.07 1.437-1.411 0.574-0.337 1.195-0.503 1.862-0.496 0.667 0.007 1.33 0.224 1.991 0.654v0c0.539 0.35 0.946 0.768 1.221 1.255 0.279 0.481 0.407 1.002 0.383 1.562-0.024 0.56-0.224 1.129-0.599 1.707v0c-0.058 0.089-0.125 0.187-0.203 0.294-0.074 0.102-0.16 0.204-0.258 0.307v0l-4.664-3.029c-0.33 0.63-0.49 1.186-0.479 1.667 0.011 0.481 0.149 0.902 0.412 1.262 0.254 0.362 0.584 0.675 0.989 0.938v0c0.3 0.195 0.631 0.366 0.992 0.514 0.367 0.152 0.739 0.255 1.114 0.309v0l-0.456 1.03c-0.316-0.048-0.691-0.133-1.124-0.256-0.433-0.123-0.883-0.336-1.349-0.64zM31.689 113.629v0l3.39 2.201c0.198-0.305 0.311-0.607 0.338-0.905 0.033-0.294-0.027-0.578-0.181-0.851-0.157-0.268-0.417-0.519-0.777-0.754v0c-0.522-0.339-1.009-0.47-1.462-0.393-0.449 0.072-0.885 0.305-1.308 0.702z" fill="#ffffff" data-fill-palette-color="accent"></path><path d="M47.977 126.556l-6.444-2.272 3.647-10.339 6.312 2.226-0.449 1.274-4.907-1.731-1.067 3.025 3.896 1.374-0.45 1.273-3.895-1.374-1.233 3.493 5.039 1.778z" fill="#ffffff" data-fill-palette-color="accent"></path><path d="M56.602 123.987l-4.769-0.917 0.254-1.317 4.768 0.918z" fill="#ffffff" data-fill-palette-color="accent"></path><path d="M64.707 128.754v0c-1.066-0.026-2.006-0.282-2.822-0.765-0.822-0.491-1.461-1.169-1.916-2.034-0.455-0.866-0.669-1.877-0.64-3.036v0c0.029-1.158 0.292-2.158 0.789-3 0.504-0.842 1.186-1.487 2.045-1.936 0.852-0.442 1.817-0.65 2.896-0.624v0c0.556 0.014 1.084 0.086 1.584 0.218 0.507 0.132 0.946 0.298 1.319 0.5v0l-0.183 1.366c-0.386-0.195-0.812-0.364-1.279-0.508-0.467-0.137-0.965-0.213-1.494-0.226v0c-0.86-0.021-1.587 0.153-2.179 0.522-0.599 0.376-1.055 0.888-1.369 1.536-0.314 0.654-0.481 1.385-0.501 2.192v0c-0.02 0.807 0.107 1.546 0.382 2.215 0.282 0.663 0.709 1.196 1.281 1.601 0.566 0.398 1.28 0.608 2.14 0.63v0c0.543 0.013 1.047-0.03 1.514-0.132 0.46-0.108 0.9-0.259 1.322-0.454v0l0.115 1.384c-0.395 0.169-0.839 0.307-1.332 0.414-0.493 0.107-1.05 0.153-1.672 0.137z" fill="#ffffff" data-fill-palette-color="accent"></path><path d="M74.198 127.927v0c-0.799 0.12-1.503 0.045-2.112-0.225-0.616-0.269-1.116-0.679-1.501-1.231-0.391-0.551-0.641-1.192-0.751-1.926v0c-0.11-0.733-0.059-1.42 0.152-2.061 0.204-0.647 0.561-1.189 1.071-1.627 0.503-0.437 1.154-0.716 1.954-0.836v0c0.786-0.118 1.487-0.043 2.102 0.227 0.616 0.269 1.12 0.682 1.512 1.239 0.384 0.551 0.631 1.194 0.741 1.927v0c0.11 0.733 0.063 1.42-0.142 2.06-0.212 0.641-0.572 1.181-1.082 1.618-0.51 0.438-1.158 0.716-1.944 0.835zM74.012 126.689v0c0.753-0.113 1.293-0.439 1.621-0.976 0.334-0.539 0.437-1.234 0.309-2.085v0c-0.129-0.858-0.432-1.492-0.908-1.902-0.471-0.418-1.083-0.57-1.836-0.458v0c-0.753 0.113-1.296 0.439-1.63 0.978-0.329 0.531-0.428 1.226-0.3 2.084v0c0.128 0.851 0.427 1.486 0.899 1.904 0.478 0.417 1.093 0.569 1.845 0.455z" fill="#ffffff" data-fill-palette-color="accent"></path><path d="M82.608 125.745l-1.322 0.488-2.659-7.201 1.034-0.382 0.77 1.283-0.589-0.047c0.275-0.652 0.592-1.15 0.952-1.495 0.351-0.348 0.763-0.61 1.235-0.784v0c0.354-0.131 0.714-0.197 1.08-0.198 0.364-0.007 0.734 0.086 1.109 0.279 0.366 0.189 0.721 0.51 1.064 0.962v0l-0.425-0.033c0.007-0.631 0.174-1.193 0.499-1.688 0.328-0.488 0.868-0.871 1.619-1.148v0c0.602-0.222 1.153-0.299 1.652-0.229 0.492 0.072 0.926 0.3 1.301 0.685 0.381 0.382 0.701 0.923 0.959 1.625v0l1.569 4.248-1.323 0.488-1.562-4.229c-0.25-0.677-0.566-1.121-0.947-1.334-0.373-0.208-0.858-0.202-1.454 0.019v0c-0.422 0.156-0.738 0.343-0.947 0.561-0.206 0.224-0.336 0.466-0.388 0.725-0.055 0.253-0.061 0.503-0.02 0.749 0.041 0.246 0.099 0.468 0.172 0.667v0l1.54 4.173-1.313 0.485-1.465-3.969c-0.215-0.584-0.454-1.011-0.717-1.281-0.26-0.264-0.54-0.411-0.84-0.441-0.298-0.024-0.615 0.026-0.95 0.15v0c-0.484 0.179-0.877 0.444-1.178 0.795-0.307 0.353-0.44 0.787-0.399 1.3v0l-0.106-0.775z" fill="#ffffff" data-fill-palette-color="accent"></path><path d="M97.08 119.218l-1.157 0.806-4.386-6.299 0.904-0.63 1.068 1.047-0.582 0.103c0.102-0.7 0.283-1.262 0.545-1.686 0.252-0.426 0.585-0.782 0.997-1.07v0c0.31-0.216 0.642-0.37 0.996-0.464 0.351-0.099 0.732-0.102 1.144-0.009 0.402 0.091 0.826 0.312 1.272 0.663v0l-0.42 0.074c-0.152-0.612-0.133-1.198 0.058-1.758 0.194-0.555 0.62-1.061 1.278-1.519v0c0.527-0.367 1.041-0.579 1.541-0.638 0.495-0.054 0.972 0.057 1.431 0.335 0.465 0.273 0.911 0.717 1.338 1.331v0l2.587 3.716-1.157 0.806-2.576-3.7c-0.412-0.592-0.83-0.943-1.253-1.052-0.414-0.107-0.881 0.021-1.402 0.384v0c-0.369 0.257-0.628 0.518-0.775 0.782-0.143 0.269-0.208 0.536-0.193 0.8 0.011 0.259 0.067 0.502 0.169 0.729 0.102 0.228 0.213 0.428 0.334 0.602v0l2.542 3.651-1.149 0.8-2.417-3.471c-0.356-0.511-0.694-0.864-1.016-1.06-0.318-0.19-0.626-0.262-0.925-0.215-0.295 0.052-0.589 0.18-0.882 0.384v0c-0.424 0.295-0.737 0.65-0.939 1.066-0.208 0.419-0.228 0.872-0.058 1.359v0l-0.299-0.724z" fill="#ffffff" data-fill-palette-color="accent"></path><path d="M111.073 107.878v0c-0.617 0.665-1.271 1.096-1.962 1.295-0.691 0.199-1.367 0.203-2.03 0.012-0.667-0.186-1.27-0.529-1.809-1.03v0c-0.524-0.487-0.905-1.039-1.143-1.658-0.234-0.624-0.29-1.264-0.169-1.919 0.121-0.656 0.45-1.272 0.986-1.849v0c0.437-0.47 0.919-0.8 1.446-0.988 0.522-0.193 1.057-0.229 1.605-0.109 0.548 0.12 1.074 0.415 1.579 0.884v0c0.078 0.072 0.163 0.156 0.255 0.25 0.088 0.09 0.173 0.193 0.257 0.307v0l-3.785 4.075c0.564 0.434 1.084 0.686 1.56 0.757 0.476 0.071 0.914 0.009 1.314-0.189 0.401-0.188 0.765-0.459 1.094-0.813v0c0.243-0.262 0.469-0.558 0.677-0.889 0.212-0.336 0.378-0.684 0.496-1.044v0l0.936 0.626c-0.101 0.304-0.25 0.658-0.445 1.063-0.196 0.405-0.483 0.812-0.862 1.219zM105.678 106.391v0l2.751-2.962c-0.267-0.248-0.544-0.411-0.833-0.489-0.284-0.083-0.574-0.073-0.87 0.032-0.291 0.109-0.583 0.321-0.876 0.637v0c-0.424 0.456-0.636 0.913-0.638 1.372-0.007 0.455 0.149 0.924 0.466 1.41z" fill="#ffffff" data-fill-palette-color="accent"></path><path d="M115.721 101.863l-0.873 1.23-6.26-4.442 0.672-0.948 1.134 0.598c-0.168-0.598-0.243-1.11-0.225-1.536 0.013-0.429 0.138-0.812 0.375-1.146v0c0.077-0.108 0.159-0.196 0.248-0.263v0l1.183 1.01c-0.049 0.046-0.099 0.1-0.151 0.161-0.048 0.056-0.098 0.121-0.152 0.197v0c-0.238 0.335-0.381 0.692-0.431 1.07-0.053 0.384-0.034 0.694 0.059 0.93v0z" fill="#ffffff" data-fill-palette-color="accent"></path><path d="M120.201 94.664v0c-0.413 0.763-0.914 1.319-1.504 1.67-0.592 0.342-1.222 0.505-1.891 0.489-0.666-0.022-1.322-0.208-1.968-0.558v0c-0.669-0.363-1.202-0.817-1.599-1.364-0.397-0.546-0.61-1.167-0.641-1.86-0.027-0.7 0.181-1.46 0.626-2.281v0c0.192-0.355 0.412-0.669 0.658-0.943 0.24-0.276 0.488-0.504 0.742-0.682v0l0.987 0.783c-0.258 0.184-0.499 0.4-0.723 0.647-0.215 0.245-0.405 0.518-0.569 0.822v0c-0.404 0.745-0.502 1.426-0.294 2.043 0.214 0.62 0.696 1.134 1.447 1.54v0c0.733 0.397 1.425 0.531 2.075 0.402 0.644-0.133 1.173-0.581 1.586-1.343v0c0.167-0.308 0.295-0.627 0.383-0.956 0.079-0.326 0.125-0.655 0.139-0.986v0l1.076 0.368c0.027 0.256 0.001 0.588-0.077 0.997-0.088 0.412-0.239 0.816-0.453 1.212z" fill="#ffffff" data-fill-palette-color="accent"></path><path d="M123.695 86.382v0c-0.31 0.852-0.744 1.505-1.303 1.956-0.559 0.452-1.181 0.719-1.866 0.802-0.687 0.088-1.376 0.007-2.066-0.245v0c-0.672-0.244-1.238-0.605-1.699-1.082-0.458-0.484-0.759-1.051-0.903-1.702-0.144-0.651-0.081-1.347 0.188-2.087v0c0.219-0.604 0.535-1.095 0.948-1.473 0.406-0.381 0.885-0.622 1.436-0.725 0.551-0.102 1.151-0.036 1.798 0.2v0c0.1 0.036 0.21 0.08 0.332 0.131 0.116 0.049 0.235 0.11 0.357 0.182v0l-1.9 5.227c0.688 0.18 1.266 0.21 1.732 0.09 0.466-0.119 0.845-0.348 1.136-0.685 0.296-0.329 0.526-0.721 0.692-1.175v0c0.122-0.336 0.215-0.697 0.277-1.083 0.065-0.392 0.082-0.777 0.05-1.155v0l1.106 0.212c0.025 0.319 0.026 0.703 0.004 1.153-0.023 0.45-0.129 0.936-0.319 1.459zM118.146 87.112v0l1.381-3.798c-0.342-0.124-0.662-0.167-0.958-0.127-0.294 0.034-0.557 0.157-0.789 0.368-0.226 0.214-0.412 0.523-0.559 0.928v0c-0.213 0.585-0.23 1.089-0.053 1.513 0.171 0.421 0.497 0.794 0.978 1.116z" fill="#ffffff" data-fill-palette-color="accent"></path><path d="M1.373 65.785c0-2.313 1.875-4.188 4.188-4.188 2.313 0 4.188 1.875 4.188 4.188 0 2.313-1.875 4.188-4.188 4.188-2.313 0-4.188-1.875-4.188-4.188z" fill="#ffffff" data-fill-palette-color="accent"></path><path d="M119.008 65.785c0-2.313 1.875-4.188 4.188-4.188 2.313 0 4.188 1.875 4.188 4.188 0 2.313-1.875 4.188-4.188 4.188-2.313 0-4.188-1.875-4.188-4.188z" fill="#ffffff" data-fill-palette-color="accent"></path></g><g id="text-1"></g></svg></g></svg></g></svg></g><defs></defs></svg><rect width="395.52" height="93.39416202201424" fill="none" stroke="none" visibility="hidden"></rect></g></svg></g></svg>